<?xml version="1.0" standalone="no"?>
<!DOCTYPE svg PUBLIC "-//W3C//DTD SVG 20010904//EN"
 "http://www.w3.org/TR/2001/REC-SVG-20010904/DTD/svg10.dtd">
<svg version="1.0" xmlns="http://www.w3.org/2000/svg"
 width="2000.000000pt" height="2000.000000pt" viewBox="0 0 2000.000000 2000.000000"
 preserveAspectRatio="xMidYMid meet">
<metadata>
Created by potrace 1.14, written by Peter Selinger 2001-2017
</metadata>
<g transform="translate(0.000000,2000.000000) scale(0.100000,-0.100000)"
fill="#000000" stroke="none">
<path d="M910 19994 c-113 -17 -175 -30 -235 -51 -342 -122 -585 -404 -657
-763 -19 -96 -19 -18264 0 -18360 83 -412 390 -719 802 -802 96 -19 18264 -19
18360 0 410 82 721 392 801 797 20 101 21 18265 1 18365 -71 353 -305 630
-638 756 -37 14 -97 32 -133 42 -61 15 -700 16 -9171 18 -5008 1 -9116 0
-9130 -2z m15500 -2717 l0 -824 572 -6 c314 -4 685 -7 825 -7 l253 0 0 -233
c0 -129 -3 -288 -7 -355 l-6 -121 -711 5 c-391 2 -759 6 -818 8 l-108 5 0
-825 0 -824 -355 0 -355 0 0 823 0 824 -302 6 c-166 4 -513 7 -772 7 -259 0
-495 3 -523 6 l-53 7 0 350 0 349 825 -7 825 -7 0 821 0 821 355 0 355 0 0
-823z m-6210 -4377 c736 -44 1385 -215 2035 -535 709 -350 1321 -848 1812
-1475 1075 -1374 1394 -3200 849 -4865 l-62 -190 -4921 -3 -4920 -2 -26 73
c-152 426 -247 878 -287 1357 -16 197 -14 642 5 855 59 679 234 1292 540 1900
266 530 580 962 995 1374 1052 1044 2513 1598 3980 1511z m7355 -7955 l0 -500
-7642 -3 -7643 -2 0 505 0 505 7643 -2 7642 -3 0 -500z m5 -1125 l0 -250
-7650 0 -7650 0 0 243 c0 134 3 247 7 250 3 4 3446 7 7650 7 l7643 0 0 -250z
m0 -675 l0 -125 -7650 0 -7650 0 0 118 c0 65 3 122 7 125 3 4 3446 7 7650 7
l7643 0 0 -125z m0 -425 l0 -50 -7650 0 -7650 0 0 50 0 50 7650 0 7650 0 0
-50z"/>
</g>
</svg>
